<svg xmlns="http://www.w3.org/2000/svg" style="display: none;"><symbol id="food-and-restaurant" viewBox="0 0 512.002 512.002"><title>food-and-restaurant</title><path id="XMLID_124_" d="M494.841,166.183c-1.577-3.829-5.96-5.654-9.791-4.08c-3.83,1.577-5.656,5.96-4.08,9.791 c10.488,25.477,16.032,54.56,16.032,84.105c0,74.637-34.665,138.083-82.521,160.14c0.599-4.824,0.911-9.693,0.911-14.566 c0-21.666-5.935-42.853-17.162-61.27c-6.549-10.741-10.01-23.114-10.01-35.783c0-12.662,3.461-25.032,10.009-35.773 c11.229-18.417,17.163-39.604,17.163-61.27c0-21.671-5.935-42.861-17.162-61.279c-6.549-10.741-10.01-23.111-10.01-35.773 c0-7.416,1.176-14.676,3.479-21.638c27.957,4.83,54.188,23.583,73.557,53.114c2.271,3.463,6.922,4.431,10.385,2.158 c3.464-2.271,4.43-6.921,2.158-10.385c-25.485-38.855-62.108-61.14-100.48-61.14c-28.074,0-54.949,11.579-77.721,33.485 c-19.929,19.173-35.481,45.049-45.327,75.21c-33.97-33.234-75.213-55.144-116.435-61.778c-42.927-6.904-80.76,3.48-106.53,29.249 C6.917,173.093-3.779,208.746,1.19,249.094c4.838,39.288,24.124,79.643,54.305,113.629c1.482,1.668,3.542,2.52,5.611,2.52 c1.771,0,3.549-0.624,4.978-1.892c3.097-2.751,3.378-7.491,0.628-10.589C38.53,321.028,20.548,283.56,16.077,247.26 c-2.511-20.395-0.578-39.337,5.469-55.759c2.981,3.824,6.196,7.479,9.632,10.916c15.319,15.318,34.497,26.104,55.46,31.188 c12.227,2.966,23.423,9.268,32.381,18.226c8.953,8.952,15.253,20.146,18.218,32.372c5.084,20.964,15.869,40.142,31.188,55.461 c15.324,15.323,34.504,26.11,55.467,31.193c12.226,2.967,23.421,9.267,32.374,18.219c5.253,5.253,9.552,11.225,12.845,17.781 c-19.796,14.008-45.824,19.936-74.831,16.773c-35.325-3.848-72.133-20.703-103.643-47.463c-3.156-2.682-7.891-2.296-10.571,0.862 c-2.681,3.157-2.295,7.89,0.862,10.571c40.292,34.218,86.75,51.867,128.29,51.867c31.689,0,60.519-10.276,81.55-31.307 c1.843-1.843,3.601-3.757,5.285-5.729c23.263,23.938,51.86,37.033,81.268,37.033c36.443,0,70.541-19.407,96.01-54.646 c24.938-34.504,38.673-80.253,38.673-128.819C512.002,224.513,506.067,193.456,494.841,166.183z M400.393,207.478 c0,18.91-5.177,37.396-14.971,53.461c-7.981,13.095-12.201,28.165-12.201,43.582c0,15.424,4.22,30.497,12.202,43.592 c9.793,16.064,14.97,34.551,14.97,53.461c0,6.821-0.683,13.631-2.018,20.279c-6.541,1.641-13.265,2.521-20.124,2.595 c2.1-7.411,3.167-15.073,3.167-22.874c0-15.417-4.219-30.487-12.2-43.582c-9.795-16.066-14.972-34.556-14.972-53.471 c0-18.909,5.177-37.396,14.972-53.462c7.981-13.094,12.2-28.164,12.2-43.581c0-15.423-4.219-30.497-12.2-43.592 c-9.795-16.066-14.972-34.553-14.972-53.461c0-6.789,0.673-13.566,1.997-20.184c6.595-1.699,13.331-2.617,20.147-2.694 c-2.101,7.413-3.169,15.076-3.169,22.878c0,15.417,4.22,30.487,12.201,43.582C395.216,170.072,400.393,188.562,400.393,207.478z M227.427,356.28c-18.285-4.435-35.021-13.848-48.396-27.224c-13.371-13.37-22.782-30.104-27.217-48.389 c-3.615-14.904-11.288-28.544-22.189-39.444c-10.906-10.905-24.548-18.58-39.451-22.196 c-18.285-4.435-35.019-13.846-48.389-27.216c-4.815-4.816-9.143-10.108-12.895-15.743c3.491-5.846,7.624-11.233,12.377-16.091 c3.755,6.724,8.417,12.898,13.935,18.417c10.902,10.901,24.541,18.573,39.444,22.188c18.286,4.436,35.021,13.85,48.396,27.225 c13.37,13.369,22.781,30.102,27.216,48.388c3.614,14.901,11.287,28.541,22.189,39.445c10.905,10.904,24.547,18.58,39.451,22.196 c18.287,4.435,35.02,13.846,48.389,27.217c4.81,4.809,9.133,10.086,12.881,15.713c-3.48,5.862-7.615,11.257-12.37,16.12 c-3.754-6.722-8.409-12.897-13.928-18.417C255.97,367.569,242.33,359.896,227.427,356.28z M305.031,390.11 c18.96-30.568,22.359-71.897,8.611-114.971c-1.259-3.945-5.482-6.126-9.425-4.864c-3.946,1.259-6.124,5.479-4.864,9.425 c9.948,31.169,10.083,61.102,1.12,85.592c-2.966-3.798-6.161-7.428-9.578-10.844c-15.318-15.319-34.496-26.104-55.46-31.188 c-12.227-2.967-23.423-9.27-32.38-18.226c-8.954-8.955-15.255-20.15-18.219-32.374c-5.084-20.964-15.869-40.142-31.188-55.46 c-15.323-15.322-34.504-26.11-55.468-31.195c-12.225-2.965-23.419-9.265-32.372-18.217c-5.255-5.255-9.562-11.231-12.856-17.791 c48.98-34.787,131.874-17.031,192.711,43.805c16.741,16.742,30.508,35.381,40.918,55.398c1.913,3.676,6.442,5.104,10.114,3.194 c3.676-1.911,5.105-6.439,3.194-10.114c-8.993-17.292-20.316-33.602-33.748-48.64c13.288-46.715,40.973-82.134,73.989-97.585 c-0.583,4.76-0.887,9.562-0.887,14.369c0,21.664,5.936,42.851,17.163,61.269c6.548,10.742,10.009,23.116,10.009,35.784 c0,12.662-3.461,25.032-10.008,35.773c-11.229,18.418-17.164,39.605-17.164,61.27c0,21.67,5.936,42.86,17.163,61.278 c6.548,10.742,10.009,23.112,10.009,35.774c0,7.419-1.175,14.681-3.48,21.644C342.002,419.607,321.931,408.187,305.031,390.11z"/></symbol><symbol id="coffee-beans" viewBox="0 0 512 512"><title>coffee-beans</title><path id="XMLID_680_" d="M110.84,340.114v50.625c0,4.142,3.358,7.5,7.5,7.5s7.5-3.358,7.5-7.5V161.827c0-1.378,1.122-2.5,2.5-2.5 h255.334c1.379,0,2.5,1.122,2.5,2.5v68.912c0,4.142,3.357,7.5,7.5,7.5s7.5-3.358,7.5-7.5v-68.912 c0-8.283-5.79-15.224-13.531-17.029V80.792c6.52-2.547,11.158-8.882,11.158-16.292v-10c0-7.411-4.638-13.745-11.158-16.292V20.4 c0-11.249-9.151-20.4-20.4-20.4h-39.306c-4.143,0-7.5,3.358-7.5,7.5v30.669c-6.574,2.521-11.262,8.881-11.262,16.331v10 c0,7.45,4.688,13.81,11.262,16.331v63.497H191.578V80.83c6.573-2.521,11.261-8.881,11.261-16.33v-10 c0-7.449-4.687-13.809-11.261-16.33V7.504c0-4.142-3.358-7.5-7.5-7.5h-39.307c-11.249,0-20.4,9.151-20.4,20.4v17.804 c-6.52,2.547-11.158,8.882-11.158,16.292v10c0,7.411,4.638,13.745,11.158,16.292v64.006c-7.741,1.805-13.531,8.746-13.531,17.029 v119.8H90.529c-0.15-7.315-6.136-13.222-13.486-13.222H58.376c-7.444,0-13.5,6.056-13.5,13.5v58.409c0,7.444,6.056,13.5,13.5,13.5 h18.667c7.444,0,13.5-6.056,13.5-13.5v-0.201H110.84z M75.543,338.814H59.876v-55.409h15.667V338.814z M326.674,67 c-1.379,0-2.5-1.122-2.5-2.5v-10c0-1.378,1.121-2.5,2.5-2.5H381.3c1.379,0,2.5,1.122,2.5,2.5v10c0,1.378-1.121,2.5-2.5,2.5 H326.674z M367.242,15c2.978,0,5.4,2.422,5.4,5.4V37h-37.206V15H367.242z M335.436,82h37.206v62.327h-37.206V82z M139.371,144.327 V82h37.207v62.327H139.371z M185.339,52c1.378,0,2.5,1.122,2.5,2.5v10c0,1.378-1.122,2.5-2.5,2.5h-54.625 c-1.378,0-2.5-1.122-2.5-2.5v-10c0-1.378,1.122-2.5,2.5-2.5H185.339z M144.771,15.004h31.807V37h-37.207V20.404 C139.371,17.426,141.793,15.004,144.771,15.004z M110.84,325.114H90.543v-28.486h20.297V325.114z"/><path id="XMLID_690_" d="M462.101,298.748l-6.938-7.04c-6.314-6.406-15.095-10.081-24.091-10.081h-29.898v-16.366 c0-4.142-3.357-7.5-7.5-7.5s-7.5,3.358-7.5,7.5v212.982c0,10.343-8.414,18.757-18.757,18.757h-222.82 c-10.342,0-18.756-8.414-18.756-18.757v-52.982c0-4.142-3.358-7.5-7.5-7.5s-7.5,3.358-7.5,7.5v52.982 c0,18.614,15.143,33.757,33.756,33.757h222.82c18.613,0,33.757-15.143,33.757-33.757V340.114h30.068 c8.987,0,17.449-3.486,23.827-9.817l6.896-6.844C468.79,316.679,468.851,305.597,462.101,298.748z M451.398,312.807l-6.896,6.844 c-3.55,3.523-8.259,5.463-13.261,5.463h-30.068v-28.486h29.898c5.007,0,9.894,2.045,13.407,5.61l6.938,7.04 C452.382,310.256,452.373,311.839,451.398,312.807z"/><path id="XMLID_693_" d="M351.796,221.96c0-20.969-17.06-38.029-38.029-38.029s-38.029,17.06-38.029,38.029 c0,20.97,17.06,38.03,38.029,38.03S351.796,242.93,351.796,221.96z M313.766,244.99c-12.698,0-23.029-10.331-23.029-23.03 c0-12.698,10.331-23.029,23.029-23.029s23.029,10.331,23.029,23.029C336.796,234.659,326.465,244.99,313.766,244.99z"/><path id="XMLID_696_" d="M286.268,448.17h26.458c15.163,0,27.5-12.336,27.5-27.5v-89.019c0-9.649-7.851-17.5-17.5-17.5H189.287 c-9.649,0-17.5,7.851-17.5,17.5v89.019c0,15.164,12.336,27.5,27.5,27.5h52.458c4.142,0,7.5-3.358,7.5-7.5s-3.357-7.5-7.5-7.5 h-52.458c-6.893,0-12.5-5.607-12.5-12.5v-89.019c0-1.378,1.122-2.5,2.5-2.5h133.439c1.379,0,2.5,1.122,2.5,2.5v89.019 c0,6.893-5.607,12.5-12.5,12.5h-26.458c-4.143,0-7.5,3.358-7.5,7.5S282.126,448.17,286.268,448.17z"/><path id="XMLID_697_" d="M354.091,105.883h-0.104c-4.143,0-7.5,3.358-7.5,7.5s3.357,7.5,7.5,7.5h0.104c4.143,0,7.5-3.358,7.5-7.5 S358.233,105.883,354.091,105.883z"/><path id="XMLID_698_" d="M158.026,105.883h-0.104c-4.142,0-7.5,3.358-7.5,7.5s3.358,7.5,7.5,7.5h0.104c4.142,0,7.5-3.358,7.5-7.5 S162.168,105.883,158.026,105.883z"/><path id="XMLID_699_" d="M285.213,352.893c-6.271-6.271-15.646-8.938-25.712-7.317c-9.323,1.5-18.583,6.452-26.074,13.943 c-16.377,16.377-19.288,39.124-6.626,51.785c5.297,5.297,12.359,7.869,19.983,7.869c10.597,0,22.278-4.97,31.803-14.495 c7.491-7.491,12.442-16.751,13.942-26.074C294.15,368.534,291.483,359.162,285.213,352.893z M244.033,370.125 c5.202-5.202,11.708-8.752,17.85-9.74c0.932-0.15,2.104-0.278,3.396-0.278c0.64,0,1.312,0.041,1.994,0.116l-33.153,33.153 C233.309,386.365,236.891,377.268,244.033,370.125z M277.719,376.221c-0.988,6.142-4.538,12.648-9.74,17.85 c-7.142,7.143-16.24,10.725-23.252,9.913l33.159-33.158C278.116,372.888,277.944,374.827,277.719,376.221z"/><path id="XMLID_703_" d="M173.287,233.537h49.638c7.444,0,13.5-6.056,13.5-13.5v-16.1c0-7.444-6.056-13.5-13.5-13.5h-49.638 c-7.444,0-13.5,6.056-13.5,13.5v16.1C159.787,227.481,165.843,233.537,173.287,233.537z M174.787,205.438h46.638v13.1h-46.638 V205.438z"/><path id="XMLID_706_" d="M167.287,264.66h42.386c4.142,0,7.5-3.358,7.5-7.5s-3.358-7.5-7.5-7.5h-42.386 c-4.142,0-7.5,3.358-7.5,7.5S163.145,264.66,167.287,264.66z"/></symbol><symbol id="internet" viewBox="0 0 512 512"><title>internet</title><path id="XMLID_553_" d="M246.624,278.126c-16.784,16.784-16.784,44.093,0,60.877c8.13,8.131,18.94,12.608,30.438,12.608 c11.499,0,22.309-4.478,30.439-12.608c16.784-16.784,16.784-44.093,0-60.877c-8.13-8.131-18.94-12.608-30.439-12.608 C265.564,265.518,254.754,269.996,246.624,278.126z M296.895,328.397c-5.297,5.297-12.341,8.215-19.833,8.215 c-7.491,0-14.535-2.917-19.832-8.215c-10.935-10.936-10.935-28.729,0-39.664c5.297-5.297,12.341-8.215,19.832-8.215 c7.492,0,14.535,2.917,19.833,8.215C307.83,299.668,307.83,317.461,296.895,328.397z"/><path id="XMLID_556_" d="M92.347,132.595c7.507,0,14.564-2.923,19.872-8.231c43.953-43.953,102.496-68.158,164.844-68.158 s120.891,24.206,164.843,68.158c10.956,10.957,28.785,10.957,39.744,0c10.957-10.957,10.957-28.786,0-39.744 C427.082,30.052,354.424,0,277.063,0C199.7,0,127.042,30.052,72.474,84.621c-10.956,10.958-10.956,28.786,0.001,39.744 C77.783,129.672,84.841,132.595,92.347,132.595z M83.081,95.227C134.816,43.492,203.707,15,277.063,15 c73.355,0,142.246,28.492,193.98,80.227c5.109,5.109,5.109,13.422,0.001,18.53c-5.109,5.108-13.423,5.109-18.531,0.001 c-46.785-46.786-109.094-72.552-175.45-72.552s-128.665,25.766-175.451,72.552c-2.474,2.475-5.765,3.837-9.265,3.837 c-3.5,0-6.791-1.363-9.266-3.838C77.973,108.648,77.973,100.335,83.081,95.227z"/><path id="XMLID_559_" d="M130.748,149.347c-10.956,10.957-10.956,28.786,0,39.744c5.309,5.308,12.366,8.23,19.872,8.23 c7.505,0,14.563-2.923,19.872-8.231c28.411-28.412,66.258-44.059,106.57-44.06c40.312,0,78.159,15.647,106.57,44.06 c10.958,10.957,28.788,10.956,39.744,0c10.956-10.957,10.956-28.786,0-39.744c-39.028-39.027-90.99-60.521-146.314-60.521 C221.738,88.825,169.776,110.319,130.748,149.347z M412.77,178.483c-5.108,5.108-13.421,5.108-18.531,0 c-31.245-31.245-72.859-48.453-117.177-48.453c-44.319,0.001-85.933,17.209-117.176,48.453c-2.476,2.475-5.766,3.838-9.266,3.838 c-3.5,0-6.791-1.363-9.265-3.837c-5.109-5.109-5.109-13.422,0-18.531c36.195-36.194,84.39-56.128,135.708-56.128 c51.317,0,99.513,19.933,135.707,56.127C417.878,165.061,417.878,173.374,412.77,178.483z"/><path id="XMLID_562_" d="M488.268,410.412h-48.18c4.871-9.103,7.494-19.354,7.494-29.766v-46.385c0-4.142-3.358-7.5-7.5-7.5 s-7.5,3.358-7.5,7.5v46.385c0,10.937-3.58,21.222-10.349,29.766H215.261c-4.142,0-7.5,3.358-7.5,7.5s3.358,7.5,7.5,7.5h273.006 c0.15,0,0.271,0.122,0.271,0.271v20.894c0,10.148-8.256,18.404-18.404,18.404H41.865c-10.148,0-18.404-8.256-18.404-18.404 v-20.894c0-0.15,0.122-0.271,0.271-0.271h157.006c4.142,0,7.5-3.358,7.5-7.5s-3.358-7.5-7.5-7.5h-50.145 c-0.132-0.214-0.276-0.424-0.432-0.627c-6.447-8.424-9.854-18.5-9.854-29.138V232.629c0-1.651,1.344-2.995,2.995-2.995h57.819 c-0.216,1.414-0.33,2.853-0.329,4.311c0,7.507,2.923,14.564,8.231,19.872c10.956,10.955,28.785,10.957,39.743,0 c12.9-12.901,30.052-20.005,48.296-20.005s35.396,7.104,48.296,20.005c5.308,5.308,12.365,8.231,19.872,8.231 s14.564-2.923,19.873-8.231c6.576-6.576,9.2-15.627,7.882-24.182h56.601c1.651,0,2.995,1.344,2.995,2.995v67.109 c0,4.142,3.358,7.5,7.5,7.5s7.5-3.358,7.5-7.5v-67.109c0-9.922-8.073-17.995-17.995-17.995H367c-0.429,0-0.847,0.044-1.256,0.113 c-0.212-0.226-0.421-0.454-0.641-0.675c-23.516-23.516-54.783-36.467-88.04-36.467s-64.524,12.951-88.04,36.468 c-0.183,0.183-0.357,0.374-0.534,0.561h-65.186c-9.922,0-17.995,8.073-17.995,17.995v12.913H79.342 c-31.552,0-57.222,25.67-57.222,57.223v23.242c0,31.553,25.67,57.223,57.222,57.223h26.017c0.383,9.616,2.907,18.834,7.404,27.181 H23.732c-8.421,0-15.271,6.851-15.271,15.271v20.894c0,18.419,14.985,33.404,33.404,33.404h19.705 C71.837,499.492,92.42,512,114.541,512h182.198c4.142,0,7.5-3.358,7.5-7.5s-3.358-7.5-7.5-7.5H114.541 c-14.009,0-26.8-6.343-35.182-17.02h353.286c-8.387,10.676-21.191,17.02-35.185,17.02h-66.198c-4.142,0-7.5,3.358-7.5,7.5 s3.358,7.5,7.5,7.5h66.198c22.445,0,42.588-12.228,52.968-32.02h19.707c18.419,0,33.404-14.985,33.404-33.404v-20.894 C503.539,417.262,496.688,410.412,488.268,410.412z M277.063,192.605c29.25,0,56.75,11.391,77.434,32.074 c5.108,5.109,5.108,13.422,0,18.531c-2.475,2.475-5.765,3.837-9.266,3.837c-3.5,0-6.791-1.363-9.265-3.837 c-15.733-15.734-36.652-24.399-58.903-24.399s-43.169,8.665-58.903,24.399c-5.108,5.108-13.422,5.108-18.53,0 c-2.475-2.475-3.838-5.766-3.838-9.265c0-3.5,1.363-6.79,3.837-9.265C220.312,203.996,247.812,192.605,277.063,192.605z M105.307,341.993H79.342c-8.814,0-15.985-7.171-15.985-15.985v-23.242c0-8.814,7.171-15.985,15.985-15.985h25.965V341.993z M37.12,326.007v-23.242c0-23.282,18.941-42.223,42.222-42.223h25.965v11.238H79.342c-17.085,0-30.985,13.9-30.985,30.985v23.242 c0,17.085,13.9,30.985,30.985,30.985h25.965v11.238H79.342C56.061,368.23,37.12,349.289,37.12,326.007z"/></symbol></svg>